<?xml version="1.0" encoding="utf-8"?>
<!-- Generator: Adobe Illustrator 25.2.3, SVG Export Plug-In . SVG Version: 6.00 Build 0)  -->
<svg version="1.1" id="Layer_1" xmlns="http://www.w3.org/2000/svg" xmlns:xlink="http://www.w3.org/1999/xlink" x="0px" y="0px"
	 viewBox="0 0 709 139.6" style="enable-background:new 0 0 709 139.6;" xml:space="preserve">
<g>
	<g>
		<path d="M332.3,61.8c2.1,0,4,0.7,5.6,2.2c1.5,1.6,2.2,3.4,2.2,5.6c0,10.8-3.8,19.9-11.5,27.5c-7.6,7.6-16.7,11.5-27.5,11.5
			s-19.9-3.8-27.5-11.5c-7.6-7.6-11.5-16.7-11.5-27.5s3.8-19.9,11.5-27.5c7.6-7.6,16.7-11.5,27.5-11.5c9.5,0,17.8,3,25,9.1
			c1.6,1.4,2.6,3.2,2.8,5.3c0.1,2.2-0.4,4-1.8,5.7c-1.4,1.6-3.2,2.5-5.3,2.7c-2.2,0.2-4-0.4-5.7-1.8c-4.3-3.6-9.3-5.5-15-5.5
			c-6.5,0-11.9,2.3-16.5,6.9c-4.6,4.5-6.9,10-6.9,16.5s2.3,11.9,6.9,16.5c4.5,4.6,10,6.9,16.5,6.9c5,0,9.6-1.4,13.6-4.3
			s6.8-6.6,8.5-11.2h-15.4c-2.2,0-4-0.8-5.6-2.3c-1.5-1.5-2.2-3.3-2.2-5.5s0.7-4,2.2-5.6c1.6-1.5,3.4-2.2,5.6-2.2
			C307.8,61.8,332.3,61.8,332.3,61.8z"/>
		<path d="M390.2,108.5c-10.8,0-19.9-3.8-27.5-11.5c-7.6-7.6-11.5-16.7-11.5-27.5S355,49.6,362.7,42c7.6-7.6,16.7-11.5,27.5-11.5
			s19.9,3.8,27.5,11.5c7.6,7.6,11.5,16.7,11.5,27.5s-3.8,19.9-11.5,27.5C410.1,104.7,401,108.5,390.2,108.5z M390.2,46.2
			c-6.5,0-11.9,2.3-16.5,6.9c-4.6,4.5-6.9,10-6.9,16.5s2.3,11.9,6.9,16.5c4.5,4.6,10,6.9,16.5,6.9s11.9-2.3,16.5-6.9
			c4.6-4.5,6.9-10,6.9-16.5s-2.3-11.9-6.9-16.5C402.1,48.5,396.7,46.2,390.2,46.2z"/>
		<path d="M440.8,46.2c-2.2,0-4-0.7-5.6-2.2c-1.5-1.6-2.2-3.4-2.2-5.6s0.7-4,2.2-5.6c1.6-1.5,3.4-2.2,5.6-2.2h53.4
			c2.2,0,4,0.7,5.6,2.2c1.5,1.6,2.2,3.4,2.2,5.6c0,2.2-0.7,4-2.2,5.6c-1.6,1.5-3.4,2.2-5.6,2.2h-18.9v54.6c0,2.2-0.7,4-2.2,5.5
			c-1.6,1.6-3.4,2.3-5.6,2.3s-4-0.8-5.5-2.3c-1.6-1.5-2.3-3.3-2.3-5.5V46.2H440.8z"/>
		<path d="M561,30.6c6.5,0,11.9,2.3,16.5,6.9c4.6,4.5,6.9,10,6.9,16.5c0,4.8-1.4,9.2-4.1,13.2c5.7,4.7,8.6,10.6,8.6,17.9
			c0,6.5-2.3,11.9-6.9,16.5c-4.5,4.6-10,6.9-16.5,6.9h-40.1c-2.2,0-4-0.8-5.5-2.3c-1.6-1.5-2.3-3.3-2.3-5.5V38.4
			c0-2.2,0.8-4,2.3-5.6c1.5-1.5,3.3-2.2,5.5-2.2H561z M533.2,61.8H561c2.2,0,4-0.8,5.5-2.3c1.6-1.5,2.3-3.3,2.3-5.5s-0.8-4-2.3-5.5
			c-1.5-1.6-3.3-2.3-5.5-2.3h-27.8V61.8z M565.5,93c2.2,0,4-0.8,5.5-2.3c1.6-1.5,2.3-3.3,2.3-5.5s-0.8-4-2.3-5.5
			c-1.5-1.6-3.3-2.3-5.5-2.3h-32.3V93C533.2,93,565.5,93,565.5,93z"/>
		<path d="M618.9,108.5c-2.2,0-4-0.7-5.6-2.2c-1.5-1.6-2.2-3.4-2.2-5.6V38.4c0-2.2,0.7-4,2.2-5.6c1.6-1.5,3.4-2.2,5.6-2.2
			c2.1,0,4,0.7,5.6,2.2c1.5,1.6,2.2,3.4,2.2,5.6v62.4c0,2.2-0.7,4-2.2,5.6C622.9,107.8,621,108.5,618.9,108.5z"/>
		<path d="M647.8,46.2c-2.2,0-4-0.7-5.6-2.2c-1.5-1.6-2.2-3.4-2.2-5.6s0.7-4,2.2-5.6c1.6-1.5,3.4-2.2,5.6-2.2h53.4
			c2.2,0,4,0.7,5.6,2.2c1.5,1.6,2.2,3.4,2.2,5.6c0,2.2-0.7,4-2.2,5.6c-1.6,1.5-3.4,2.2-5.6,2.2h-18.9v54.6c0,2.2-0.7,4-2.2,5.5
			c-1.6,1.6-3.4,2.3-5.6,2.3c-2.2,0-4-0.8-5.5-2.3c-1.6-1.5-2.3-3.3-2.3-5.5V46.2H647.8z"/>
	</g>
	<g>
		<circle cx="10" cy="69.7" r="10"/>
		<circle cx="79.4" cy="110.3" r="10"/>
		<path d="M223.1,62.2c-2.5-2.3-4.7-2.6-6.7-2.4c-0.4,0-0.7-0.1-1.1-0.1H109c4.6-22.7,24.8-39.8,48.8-39.8
			c13.2,0,25.7,5.1,35.1,14.4c3.8,3.8,10,4.1,13.9,0.5c4.2-3.9,4.3-10.4,0.3-14.4C193.9,7.2,176.4,0,157.8,0
			c-16.5,0-31.8,5.8-43.7,15.5c-5.5,4.2-9.6,4.4-18.3,4.4H79.1c-5.6,0-10.1,4.6-10,10.3c0.1,5.4,4.9,9.6,10.3,9.6h15.3h0.1h11.1
			l-10.1,1.8c-1.2,0.2-2.3,1-2.7,2.2c-1.4,3.6-2.4,7.4-3.4,11.2c-0.9,3.3-5.9,4.8-13.1,4.8H40.3c-5.5,0-10.2,4.2-10.4,9.7
			c-0.2,5.6,4.4,10.3,10,10.3h48.9h13.8l-10.3,1.7c-1.8,0.3-2.9,2-2.5,3.8c7.1,31,34.8,54.3,68,54.3c37.3,0,67.9-29.5,69.7-66.4
			C227.6,69,226.1,65,223.1,62.2z M157.8,119.5c-24.1,0-44.2-17.1-48.8-39.8h97.6C201.9,102.4,181.8,119.5,157.8,119.5z"/>
	</g>
</g>
</svg>
